PathFileType	4	(X/Y/Z)	/Users/niels/Desktop/University/Third Semester/Perception and Action/Exam/Gymnastics Motion Tracking/Code for Gym Tracking/Scripts/Analyzed Data/kraft_bad_id5_1_nmspeed_Sports2D/kraft_bad_id5_1_nmspeed_Sports2D_px_person00.trc
DataRate	CameraRate	NumFrames	NumMarkers	Units	OrigDataRate	OrigDataStartFrame	OrigNumFrames
49.390243902439025	49.390243902439025	9	22	m	49.390243902439025	0	82
Frame#	Time	Hip			RHip			RKnee			RAnkle			RBigToe			RSmallToe			RHeel			LHip			LKnee			LAnkle			LBigToe			LSmallToe			LHeel			Neck			Head			Nose			RShoulder			RElbow			RWrist			LShoulder			LElbow			LWrist		
		X1	Y1	Z1	X2	Y2	Z2	X3	Y3	Z3	X4	Y4	Z4	X5	Y5	Z5	X6	Y6	Z6	X7	Y7	Z7	X8	Y8	Z8	X9	Y9	Z9	X10	Y10	Z10	X11	Y11	Z11	X12	Y12	Z12	X13	Y13	Z13	X14	Y14	Z14	X15	Y15	Z15	X16	Y16	Z16	X17	Y17	Z17	X18	Y18	Z18	X19	Y19	Z19	X20	Y20	Z20	X21	Y21	Z21	X22	Y22	Z22
0	0.0	-0.06958334999283391	-0.5843086172412416	0.0	-0.022606141329808024	-0.601183304917065	0.0	0.0337673426021821	-0.6494167083703843	0.0	-0.12881355065077865	-0.7763707691717179	0.0	-0.14519675169143215	-0.8197434537500282	0.0	-0.16876082002496245	-0.8301615043699243	0.0	-0.08468470503948183	-0.7475831087143393	0.0	-0.016419956604908758	-0.5475514832676828	0.0	0.040380677696506995	-0.6500417951557191	0.0	-0.010418524542244248	-0.6915637373345993	0.0	-0.16506802735829457	-0.8104765603280255	0.0	-0.15650881546887618	-0.8180027731394147	0.0	-0.0258522233724396	-0.6991078271058556	0.0	-0.00865345971100707	-0.333488126109388	0.0	-0.012947944782052452	-0.2729304893912223	0.0	0.004230933266553208	-0.3082083386873367	0.0	0.008364693229490513	-0.3569769864687846	0.0	0.0017822787777945295	-0.402201132239271	0.0	0.07574605558845378	-0.38787579465783756	0.0	0.010214580267568574	-0.356786428649749	0.0	0.10039229309849318	-0.34352746404262624	0.0	0.18580954212021927	-0.3053317134737749	0.0
1	0.02024691358024691	-0.05133758327556356	-0.5655030557348326	0.0	-0.01691256742719568	-0.5798415008134165	0.0	0.03867811122112644	-0.6417068079271858	0.0	-0.0974285349142268	-0.7666913197621283	0.0	-0.10272958407280101	-0.8126865171197056	0.0	-0.12329228479690033	-0.8193922123376429	0.0	-0.06720143089153892	-0.7474426437028698	0.0	-0.005413660749893036	-0.539816389523761	0.0	0.06629280008807187	-0.6368450266656981	0.0	0.00713997417055218	-0.697898262431849	0.0	-0.10502727273072447	-0.8038897154672533	0.0	-0.09784311968435674	-0.8088218934180464	0.0	-0.009614319722086689	-0.7061087714362408	0.0	0.004769638218668419	-0.3284480236575972	0.0	0.01061627554273212	-0.2624911109829808	0.0	0.02929658424921919	-0.3029070811595738	0.0	0.01267584338874912	-0.34781775982848134	0.0	0.025872238753086134	-0.38376750677592175	0.0	0.10707859514820671	-0.3626521401951617	0.0	0.027565935516190045	-0.3493836014760359	0.0	0.119081665745559	-0.332788728563899	0.0	0.20143371583311853	-0.29393480467538297	0.0
2	0.04049382716049382	-0.03308077156892844	-0.5473655553759754	0.0	-0.01089751041056222	-0.5592608297023193	0.0	0.04254655589842748	-0.6349589564845525	0.0	-0.06820919499921682	-0.7577624739049554	0.0	-0.06309468435941995	-0.8061408393495565	0.0	-0.08091509502529871	-0.8093466236176866	0.0	-0.05104485407046978	-0.7474762120437731	0.0	0.0063709510714498934	-0.5318495773334456	0.0	0.09219784639170733	-0.6239597911765784	0.0	0.026011608403992924	-0.7039114596038064	0.0	-0.04603491809729813	-0.7974228419807169	0.0	-0.04022826779172593	-0.7998743793522801	0.0	0.0080464904739344	-0.7129150181192873	0.0	0.019132671266984147	-0.32305343021139216	0.0	0.03487241933373402	-0.25252518655782835	0.0	0.05478646071876847	-0.2974268502447676	0.0	0.01834751906375826	-0.3383896784975888	0.0	0.050639363623528666	-0.36543378156160083	0.0	0.13841173787391142	-0.3378042065064235	0.0	0.045460459204121166	-0.3418997367458841	0.0	0.1381485757640217	-0.32228884107272865	0.0	0.21755190742441669	-0.28287266416015777	0.0
3	0.060740740740740734	-0.01471645884412674	-0.5305431986223728	0.0	-0.004155423848352086	-0.5401922791204373	0.0	0.04480845576711901	-0.6300570575446414	0.0	-0.04283448576241883	-0.7502594818331096	0.0	-0.02853191992185648	-0.800502420510153	0.0	-0.04409424648488801	-0.8006176423260745	0.0	-0.037120300609727486	-0.7478567139444796	0.0	0.019608195417952345	-0.523617141452714	0.0	0.11809655580164069	-0.6117641742147815	0.0	0.04728280738773545	-0.7092851510856577	0.0	0.010973405760345683	-0.7912144880841806	0.0	0.015411321909672624	-0.7914083455351578	0.0	0.02831468617634568	-0.7192678936923999	0.0	0.03528987671013883	-0.31715731969267147	0.0	0.060388631815949737	-0.24346606947893779	0.0	0.08106713584687429	-0.29172798115420373	0.0	0.026614345756113444	-0.32864740032127576	0.0	0.07656552678710732	-0.3474703584572976	0.0	0.16975255891490734	-0.31382327879712835	0.0	0.06442689832868481	-0.3343598868360188	0.0	0.15800939363893668	-0.31227968737205863	0.0	0.23465354988411152	-0.2724283191904553	0.0
4	0.08098765432098765	0.0038646953191209844	-0.5155497287689071	0.0	0.0037704135313493463	-0.5232387674484421	0.0	0.045661255881864725	-0.6275982117474672	0.0	-0.022331560387031664	-0.7447465320035551	0.0	-0.0004744027933024051	-0.7961543581176606	0.0	-0.014434899580362176	-0.79374757017876	0.0	-0.025894223460812348	-0.7487733291511103	0.0	0.03467759986877483	-0.5152866120468909	0.0	0.14386591483728464	-0.6006727679029876	0.0	0.07149118329165552	-0.7137656207480475	0.0	0.0652344713663197	-0.7854031753437722	0.0	0.06832020177317587	-0.7836504451494763	0.0	0.05181344692201482	-0.7249063924009402	0.0	0.05375341937967343	-0.31086138122639173	0.0	0.08743995867525052	-0.23565511194702507	0.0	0.10827217723529481	-0.28593986680458544	0.0	0.03839178775842435	-0.31877195043797674	0.0	0.10375203706303235	-0.3303024836445738	0.0	0.20095999570310863	-0.29131852848929735	0.0	0.08477422670469426	-0.32686374622168146	0.0	0.1789528836105952	-0.3029848008142543	0.0	0.2530985629948579	-0.2627617827612823	0.0
5	0.10123456790123456	0.02276375329361744	-0.5026903500271681	0.0	0.013357320349195028	-0.5087650615122771	0.0	0.04632300668849478	-0.6276534535759082	0.0	-0.0067690667921602886	-0.7415907510448893	0.0	0.020842913788692245	-0.7934259587024955	0.0	0.007742015931709012	-0.7891621926668915	0.0	-0.017201400730818273	-0.7504181288404481	0.0	0.0516212698210456	-0.5071560328991014	0.0	0.16926479130645528	-0.5910788790017178	0.0	0.0985447032123439	-0.7172935990866774	0.0	0.11623288008909607	-0.7801236943573477	0.0	0.1179874043462657	-0.7767879367864888	0.0	0.07850962057796813	-0.729733501785514	0.0	0.07461788103124949	-0.3044716860732943	0.0	0.11600523530324663	-0.22934149376034035	0.0	0.13629132416827086	-0.2803579008470915	0.0	0.05414609442331617	-0.3091052529667476	0.0	0.13198296526762796	-0.3144380753554804	0.0	0.23174431798870504	-0.2709445895453306	0.0	0.10656260775500893	-0.3196124959088807	0.0	0.20109957273678758	-0.29461567106116837	0.0	0.273071744253728	-0.2539566749125328	0.0
6	0.12148148148148147	0.042078185537547455	-0.4920393028022267	0.0	0.025042064452170488	-0.496851652703096	0.0	0.04878168135825715	-0.6296300988980358	0.0	0.004857001385115743	-0.7409178200249937	0.0	0.03653270764782226	-0.7925550283455957	0.0	0.02356413404917155	-0.7871219675143373	0.0	-0.010170614769255128	-0.7529719297336958	0.0	0.07024190050000424	-0.49952867108763577	0.0	0.19406283897758467	-0.583269064861162	0.0	0.12794731105270774	-0.7200189537763889	0.0	0.16378959270200505	-0.775501038547117	0.0	0.16423410294615523	-0.7709520190290499	0.0	0.10791419460127959	-0.7338628744306162	0.0	0.09765959276601253	-0.29839490812625236	0.0	0.14592262377965437	-0.22467318978883208	0.0	0.16490438299101243	-0.2753711014207936	0.0	0.07387954950396368	-0.3000310602225491	0.0	0.16095373474824948	-0.30032539601323777	0.0	0.2618419656648785	-0.2532309402265745	0.0	0.129693622488855	-0.31288814013555866	0.0	0.22440569231032662	-0.287378667639495	0.0	0.29460479551837576	-0.2460962201828724	0.0
7	0.14172839506172838	0.06193725241153255	-0.48350255148746113	0.0	0.03914369856865169	-0.4873507116427588	0.0	0.05494708925618241	-0.6325302374329483	0.0	0.014402395915187024	-0.7426427280042995	0.0	0.048782768708350494	-0.7936617296209473	0.0	0.03531797233474649	-0.7877094237826464	0.0	-0.0033575419486811253	-0.7565907842759796	0.0	0.0902816532582287	-0.49264816511902115	0.0	0.2181614915804976	-0.5773838112768981	0.0	0.15912742003486918	-0.72220817303977	0.0	0.208113162534086	-0.7716365594593869	0.0	0.20726459135185588	-0.766207491044436	0.0	0.13942242916402586	-0.7375317771688471	0.0	0.12253502900803513	-0.2930397014403536	0.0	0.1770464620841368	-0.22170336027467422	0.0	0.19393682228059272	-0.2713625481716835	0.0	0.097253506837353	-0.29189994078444587	0.0	0.1904603315400161	-0.2882706005381284	0.0	0.29119847861530784	-0.23847195579880995	0.0	0.15403388858914632	-0.30700519480178007	0.0	0.24872218939272506	-0.281467400782965	0.0	0.3176365541479917	-0.23929786336385298	0.0
8	0.1619753086419753	0.08249480800123134	-0.4769236861925951	0.0	0.055781112389232675	-0.48002201897958474	0.0	0.06594500441197002	-0.635468805195332	0.0	0.02414248869233457	-0.7465318587623916	0.0	0.060324278790783586	-0.7967142934656163	0.0	0.04588344656447293	-0.7908197927116345	0.0	0.00498256624998811	-0.7613841156646105	0.0	0.11152546716718319	-0.4867148042531336	0.0	0.24159524980306138	-0.5734293720006459	0.0	0.19158262386827576	-0.7241602917090803	0.0	0.24969440409210727	-0.7685917661436892	0.0	0.24756748477433285	-0.7625580565930464	0.0	0.17248911184016	-0.7410090836433608	0.0	0.14890013797950855	-0.2887617833072605	0.0	0.2092512032768172	-0.22041267671881962	0.0	0.22329697695800416	-0.2686279136511927	0.0	0.12371520112623181	-0.2850155784955794	0.0	0.22041685852423165	-0.27844157282154475	0.0	0.31998225590208595	-0.22673168870312088	0.0	0.1794496131420311	-0.30227677289658184	0.0	0.27387364648690343	-0.2770425312917587	0.0	0.34203557447212074	-0.23369296330481565	0.0
